<?xml version="1.0" encoding="utf-8"?>
<!-- Generator: Adobe Illustrator 18.0.0, SVG Export Plug-In . SVG Version: 6.00 Build 0)  -->
<!DOCTYPE svg PUBLIC "-//W3C//DTD SVG 1.1//EN" "http://www.w3.org/Graphics/SVG/1.1/DTD/svg11.dtd">
<svg version="1.1" xmlns="http://www.w3.org/2000/svg" xmlns:xlink="http://www.w3.org/1999/xlink" x="0px" y="0px"
	 viewBox="0 0 110 110" enable-background="new 0 0 110 110" xml:space="preserve">
<g id="Capa_1">
	<circle fill="none" cx="54.7" cy="55" r="55"/>
</g>
<g id="iconos">
	<g>
		<path stroke="#20140F" stroke-width="0.25" stroke-miterlimit="10" d="M89.4,47.3h-5.9V40h5.9c0.4,0,0.8-0.2,1-0.6
			c0.2-0.4,0.2-0.8,0-1.2c-1.4-2.5-3.8-4.3-6.6-5.1c-2.8-0.7-5.8-0.3-8.2,1.1l3-5c0.3-0.5,0.2-1.1-0.2-1.5L71.7,21
			c-0.4-0.4-1-0.5-1.5-0.2l-6.6,4c-0.2,0.1-0.4,0.1-0.6,0c0,0-0.1,0-0.1,0c-0.2-0.1-0.3-0.2-0.4-0.4l-1.9-7.5
			C60.5,16.4,60,16,59.5,16h-9.6c-0.6,0-1,0.4-1.2,0.9l-1.9,7.5c-0.1,0.2-0.2,0.3-0.4,0.4c0,0-0.1,0-0.1,0c-0.2,0.1-0.4,0.1-0.6,0
			l-6.6-4c-0.5-0.3-1.1-0.2-1.5,0.2l-6.8,6.8c-0.4,0.4-0.5,1-0.2,1.5l3,5c-2.5-1.5-5.5-1.9-8.2-1.1c-2.8,0.7-5.2,2.6-6.6,5.1
			c-0.2,0.4-0.2,0.8,0,1.2c0.2,0.4,0.6,0.6,1,0.6h5.9v7.2h-5.9c-0.4,0-0.8,0.2-1,0.6c-0.2,0.4-0.2,0.8,0,1.2
			c2.6,4.6,8.2,6.6,13.2,4.7c-0.1,0.6-0.2,1.3-0.2,1.9c0,0.1,0,0.2,0,0.3l2.4,9.7c1.2,3.5,3.3,6.7,6,9.3v9.6c0,2,1.6,3.6,3.6,3.6
			h21.6c2,0,3.6-1.6,3.6-3.6v-9.2c3.4-2.8,5.8-6.5,7.1-10.7c0-0.1,0-0.1,0-0.2L77.9,54c1,0.3,2.1,0.5,3.2,0.5c3.9,0,7.4-2.1,9.4-5.4
			c0.2-0.4,0.2-0.8,0-1.2C90.3,47.5,89.9,47.3,89.4,47.3L89.4,47.3z M33.2,28.9l5.5-5.5l5.9,3.5c0.8,0.5,1.9,0.6,2.7,0.2
			c0,0,0,0,0.1,0c0.9-0.4,1.6-1.1,1.8-2.1l1.6-6.6h7.7l1.6,6.6c0.2,0.9,0.9,1.7,1.8,2.1c0,0,0,0,0.1,0c0.4,0.2,0.8,0.3,1.2,0.3
			c0.5,0,1.1-0.1,1.5-0.4l5.9-3.5l5.5,5.5l-3.3,5.4c-0.4-0.2-0.9-0.3-1.3-0.3h-2.4c-0.9,0-1.7,0.3-2.4,0.9C66,34.4,65.2,34,64.3,34
			h-0.1c-3.4-3-8.1-4.2-12.5-3.3c-4.5,0.9-8.2,4-10.1,8.1h-3.6c-0.3-0.5-0.6-1-0.9-1.5c0.3-0.8,0.2-1.8-0.2-2.6L33.2,28.9z
			 M72.7,37.6v12c0,0.7-0.5,1.2-1.2,1.2h-2.4c-0.7,0-1.2-0.5-1.2-1.2v-12c0-0.7,0.5-1.2,1.2-1.2h2.4C72.1,36.4,72.7,37,72.7,37.6
			L72.7,37.6z M65.5,37.6v12c0,0.7-0.5,1.2-1.2,1.2h-2.4c-0.7,0-1.2-0.5-1.2-1.2v-12c0-0.7,0.5-1.2,1.2-1.2h2.4
			C64.9,36.4,65.5,37,65.5,37.6L65.5,37.6z M57.1,34h-2.4c-0.9,0-1.7,0.3-2.4,0.9c-0.7-0.6-1.5-0.9-2.4-0.9h-0.5
			c3.5-1.7,7.6-1.6,11.1,0.3c-0.4,0.2-0.7,0.4-1,0.6C58.8,34.4,57.9,34,57.1,34L57.1,34z M58.3,37.6v8.6c-0.4-0.1-0.8-0.2-1.2-0.2
			h-3.6v-8.4c0-0.7,0.5-1.2,1.2-1.2h2.4C57.7,36.4,58.3,37,58.3,37.6L58.3,37.6z M51,37.6v8.4h-4.8v-8.4c0-0.7,0.5-1.2,1.2-1.2h2.4
			C50.5,36.4,51,37,51,37.6L51,37.6z M28.2,52.1c-2.2,0-4.3-0.9-5.9-2.4H27c0.7,0,1.2-0.5,1.2-1.2v-9.6c0-0.7-0.5-1.2-1.2-1.2h-4.7
			c1.6-1.5,3.7-2.4,5.9-2.4c3.4,0,6.5,2.1,7.8,5.3c0.2,0.5,0.6,0.8,1.1,0.8h6.7v4.8h-6.7c-0.5,0-0.9,0.3-1.1,0.7
			c-0.2,0.5-0.5,1-0.8,1.4c-0.7,0.6-1.2,1.2-1.7,1.9C32,51.4,30.1,52.1,28.2,52.1L28.2,52.1z M73.8,64c-1.2,3.9-3.6,7.4-6.7,9.9
			c-0.3,0.2-0.4,0.6-0.4,0.9v9.7c0,0.7-0.5,1.2-1.2,1.2H43.8c-0.7,0-1.2-0.5-1.2-1.2V74.5c0-0.3-0.1-0.6-0.4-0.9
			c-1.3-1.3-4.6-4.8-5.7-8.6l-2.4-9.5c0.1-3.5,2.6-6.5,6.1-7.1h16.7c0.3,0,0.6,0.1,0.9,0.3c0.2,0.2,0.4,0.5,0.3,0.9c0,3.3-2.7,6-6,6
			h-8.4v2.4h3.8l0.4,0.2c2.5,1.5,4.6,2.8,5.4,6.1c0.4,1.8,0.4,3.7,0,5.4l2.3,0.6c0.5-2.2,0.5-4.4,0-6.6c-0.6-2.3-1.9-4.3-3.8-5.7
			h0.2c3.4,0,6.5-2.1,7.8-5.3c0.5,0.3,1.2,0.5,1.8,0.5h2.4c0.9,0,1.7-0.3,2.4-0.9c0.7,0.6,1.5,0.9,2.4,0.9h2.4
			c1.6,0,3.1-1.1,3.5-2.7c0.3,0.4,0.6,0.9,0.9,1.4L73.8,64z M81.1,52.1c-1,0-1.9-0.2-2.8-0.5c0-0.2-0.1-0.3-0.1-0.4
			c-0.7-1.5-1.8-2.8-3.1-3.9v-9.5c1.6-1.6,3.7-2.5,5.9-2.5c2.2,0,4.4,0.8,6,2.4h-4.7c-0.7,0-1.2,0.5-1.2,1.2v9.6
			c0,0.7,0.5,1.2,1.2,1.2H87C85.4,51.2,83.3,52.1,81.1,52.1L81.1,52.1z M81.1,52.1"/>
		<path stroke="#20140F" stroke-width="0.25" stroke-miterlimit="10" d="M84.7,77.3v-9.6c0-0.7-0.5-1.2-1.2-1.2h-6v2.4h4.8v9.6
			c0,0.7,0.5,1.2,1.2,1.2h7.2v-2.4H84.7z M84.7,77.3"/>
		<path stroke="#20140F" stroke-width="0.25" stroke-miterlimit="10" d="M77.5,78.5c0-0.7-0.5-1.2-1.2-1.2h-4.8v2.4h3.6v7.2
			c0,0.7,0.5,1.2,1.2,1.2h14.4v-2.4H77.5V78.5z M77.5,78.5"/>
		<path stroke="#20140F" stroke-width="0.25" stroke-miterlimit="10" d="M27,78.5v-9.6h4.8v-2.4h-6c-0.7,0-1.2,0.5-1.2,1.2v9.6h-6
			v2.4h7.2C26.5,79.7,27,79.2,27,78.5L27,78.5z M27,78.5"/>
		<path stroke="#20140F" stroke-width="0.25" stroke-miterlimit="10" d="M31.8,78.5v7.2H18.6v2.4H33c0.7,0,1.2-0.5,1.2-1.2v-7.2h3.6
			v-2.4H33C32.3,77.3,31.8,77.9,31.8,78.5L31.8,78.5z M31.8,78.5"/>
	</g>
</g>
</svg>
