<?xml version="1.0" encoding="utf-8"?>
<!-- Generator: Adobe Illustrator 18.0.0, SVG Export Plug-In . SVG Version: 6.00 Build 0)  -->
<!DOCTYPE svg PUBLIC "-//W3C//DTD SVG 1.1//EN" "http://www.w3.org/Graphics/SVG/1.1/DTD/svg11.dtd">
<svg version="1.1" xmlns="http://www.w3.org/2000/svg" xmlns:xlink="http://www.w3.org/1999/xlink" x="0px" y="0px"
	 viewBox="0 0 110 110" enable-background="new 0 0 110 110" xml:space="preserve">
<g id="Capa_1">
	<circle fill="none" cx="55.3" cy="55" r="55"/>
</g>
<g id="iconos">
	<g>
		<g>
			<path stroke="#20140F" stroke-width="0.25" stroke-miterlimit="10" d="M33,39.9c3.3,0,6-2.7,6-6c0-3.3-2.7-6-6-6
				c-3.3,0-6,2.7-6,6C26.9,37.2,29.6,39.9,33,39.9L33,39.9z M33,30.2c2,0,3.7,1.6,3.7,3.7c0,2-1.6,3.7-3.7,3.7s-3.7-1.6-3.7-3.7
				C29.3,31.8,30.9,30.2,33,30.2L33,30.2z M33,30.2"/>
			<path stroke="#20140F" stroke-width="0.25" stroke-miterlimit="10" d="M85.3,72.6l-0.5-11.8l2.2-3L84.4,53l0.5-1.6l5-2.4V44
				l-5-2.4L84.4,40l2.7-4.9l-2.9-3.9l-5.5,1l-1.4-1l-0.7-5.5l-4.6-1.5l-3.8,4h-1.7l-3.8-4l-4.6,1.5l-0.2,1.7l-16.2-1l-1.1-1.1
				l-0.3-2.5L35.7,21l-1.9,1.5h-1.6l-2-1.5l-4.4,1.8l-0.3,2.5l-1.1,1.1L22,26.7l-1.8,4.4l1.5,2v1.6l-1.5,1.9l1.4,3.5L20,60.7
				c0,0.3-0.1,0.5-0.1,0.8v0h0v0.1c0,2.4,1.2,4.6,3.2,5.9c2,1.3,4.5,1.5,6.7,0.5l6.9-2.9c-1.1,3.2,0.2,6.7,3.1,8.3L29.1,77
				c-3.5,0.7-5.9,4-5.6,7.5c0.4,3.6,3.4,6.3,7,6.3h0.1l43-2.3l0.7,1.6l3.7,0.8l3-2.9l0.8-0.3l4.2,0.5l2.5-2.8l-1-4.1l0.2-0.8
				l2.5-3.3l-1.2-3.6L85.3,72.6z M60,27.4l1.8-0.6l3.5,3.7h3.7l3.5-3.7l1.8,0.6l0.7,5.1l3,2.2l5-0.9l1.1,1.6l-2.4,4.5l1.2,3.6
				l4.6,2.2v1.9L83,49.6l-1.2,3.6l2.4,4.5l-1.1,1.6l-5-0.9l-3,2.2l-0.7,5.1l-1.8,0.6l-3.5-3.7h-3.7l-3.5,3.7L60,65.6l-0.7-5.1
				l-3-2.2l-5,0.9l-1.1-1.6l2.4-4.5l-1.2-3.6l-4.6-2.2v-1.9l4.6-2.2l1.2-3.6l-2.4-4.5l1.1-1.6l5,0.9l3-2.2L60,27.4z M22.8,30.7
				l0.8-1.9l1.9-0.2l2.3-2.3l0.2-1.9l1.9-0.8l1.5,1.2h3.2l1.5-1.2l1.9,0.8l0.2,1.9l2.2,2.3l1.9,0.2l0.8,1.9l-1.2,1.5v3.2l1.2,1.5
				l-0.8,1.9l-1.9,0.2l-2.3,2.3l-0.2,1.9L36.1,44l-1.5-1.2h-3.2L29.8,44L28,43.2l-0.2-1.9L25.5,39l-1.9-0.2l-0.8-1.9l1.2-1.5v-3.2
				L22.8,30.7z M22.2,61.7l0-0.2c0.2-2.4,2.4-4.2,4.8-4c2.4,0.2,4.2,2.3,4,4.7c-0.2,2.4-2.3,4.2-4.7,4.1
				C23.9,66.2,22.1,64.1,22.2,61.7L22.2,61.7z M43.3,62.8c2.6,0,4.7,2.1,4.7,4.7c0,2.6-2.1,4.7-4.7,4.7c-2.6,0-4.7-2.1-4.7-4.7
				C38.6,64.9,40.7,62.8,43.3,62.8L43.3,62.8z M25.7,83.8c0-1.8,1.1-3.5,2.7-4.2l1.1-0.4c1.7-0.3,3.5,0.4,4.5,1.8
				c1.1,1.4,1.2,3.3,0.5,4.9c-0.8,1.6-2.4,2.6-4.1,2.6h-0.1C27.8,88.5,25.7,86.4,25.7,83.8L25.7,83.8z M35.9,88.2
				c1.3-1.6,1.8-3.6,1.4-5.6c-0.4-2-1.6-3.7-3.3-4.8l11.4-3.7c2.5-0.8,4.3-2.8,4.8-5.4c0.5-2.5-0.5-5.1-2.5-6.8c-2-1.6-4.7-2-7.1-1
				l-7.1,3c1-2.9,0-6.2-2.5-8c-2.5-1.8-5.9-1.8-8.3,0.1l1.2-14.9l0.6,0.1l1.1,1.1l0.3,2.5l4.4,1.8l1.9-1.5h1.6l1.9,1.5l4.4-1.8
				l0.3-2.5l1.1-1.1l2.5-0.3l1.8-4.4l-1.5-1.9v-1.6l1.5-1.9l-0.9-2.2l12.5,0.7l-0.2,1.5l-1.4,1l-5.5-1l-2.9,3.9l2.7,4.9l-0.5,1.6
				l-5,2.4v4.9l5,2.4l0.5,1.6l-2.7,4.9l2.9,3.9l5.5-1l1.4,1l0.7,5.5l4.6,1.5l3.8-4h1.7l3.8,4l4.6-1.5l0.7-5.5l1.4-1l3.8,0.7l0.3,7.3
				l-0.3-0.7l-3.7-0.8l-3,2.9L75,70.5L70.8,70l-2.5,2.8l1,4.1l-0.2,0.8L66.6,81l1.2,3.6l4,1.1l0.6,0.5v0L35.9,88.2z M85.2,79.6
				l-0.4,1.8l0.9,3.4l-0.9,1l-3.5-0.4l-1.8,0.6l-2.5,2.4l-1.3-0.3l-1.3-3.2L73,83.6l-3.4-1l-0.4-1.3l2.1-2.8l0.4-1.8l-0.9-3.4l0.9-1
				l3.5,0.4l1.8-0.6l2.5-2.4l1.3,0.3l1.3,3.2l1.4,1.2l3.4,1l0.4,1.3L85.2,79.6z M85.2,79.6"/>
		</g>
		<path stroke="#20140F" stroke-width="0.25" stroke-miterlimit="10" d="M29.2,61.6c0,1.3-1,2.3-2.3,2.3c-1.3,0-2.3-1-2.3-2.3
			c0-1.3,1-2.3,2.3-2.3C28.2,59.3,29.2,60.4,29.2,61.6L29.2,61.6z M29.2,61.6"/>
		<path stroke="#20140F" stroke-width="0.25" stroke-miterlimit="10" d="M45.6,67.5c0,1.3-1,2.3-2.3,2.3c-1.3,0-2.3-1-2.3-2.3
			c0-1.3,1-2.3,2.3-2.3C44.5,65.1,45.6,66.2,45.6,67.5L45.6,67.5z M45.6,67.5"/>
		<path stroke="#20140F" stroke-width="0.25" stroke-miterlimit="10" d="M32.7,83.8c0,1.3-1,2.3-2.3,2.3s-2.3-1-2.3-2.3
			c0-1.3,1-2.3,2.3-2.3S32.7,82.5,32.7,83.8L32.7,83.8z M32.7,83.8"/>
		<path stroke="#20140F" stroke-width="0.25" stroke-miterlimit="10" d="M78.3,73.3c-3.2,0-5.8,2.6-5.8,5.8c0,3.2,2.6,5.8,5.8,5.8
			c3.2,0,5.8-2.6,5.8-5.8C84.1,75.9,81.5,73.3,78.3,73.3L78.3,73.3z M78.3,82.7c-1.9,0-3.5-1.6-3.5-3.5c0-1.9,1.6-3.5,3.5-3.5
			c1.9,0,3.5,1.6,3.5,3.5C81.8,81.1,80.2,82.7,78.3,82.7L78.3,82.7z M78.3,82.7"/>
		<path stroke="#20140F" stroke-width="0.25" stroke-miterlimit="10" d="M66.6,58.1c6.4,0,11.7-5.2,11.7-11.7
			c0-6.4-5.2-11.7-11.7-11.7S54.9,40,54.9,46.5C54.9,52.9,60.1,58.1,66.6,58.1L66.6,58.1z M66.6,37.1c5.2,0,9.3,4.2,9.3,9.3
			s-4.2,9.3-9.3,9.3c-5.2,0-9.3-4.2-9.3-9.3C57.3,41.3,61.4,37.1,66.6,37.1L66.6,37.1z M66.6,37.1"/>
		<path stroke="#20140F" stroke-width="0.25" stroke-miterlimit="10" d="M66.6,53.5c3.9,0,7-3.1,7-7c0-3.9-3.1-7-7-7
			c-3.9,0-7,3.1-7,7C59.6,50.3,62.7,53.5,66.6,53.5L66.6,53.5z M66.6,41.8c2.6,0,4.7,2.1,4.7,4.7c0,2.6-2.1,4.7-4.7,4.7
			c-2.6,0-4.7-2.1-4.7-4.7C61.9,43.9,64,41.8,66.6,41.8L66.6,41.8z M66.6,41.8"/>
		<path stroke="#20140F" stroke-width="0.25" stroke-miterlimit="10" d="M82.9,24.3c0,1.9,1.6,3.5,3.5,3.5c1.9,0,3.5-1.6,3.5-3.5
			c0-1.9-1.6-3.5-3.5-3.5C84.5,20.8,82.9,22.4,82.9,24.3L82.9,24.3z M87.6,24.3c0,0.6-0.5,1.2-1.2,1.2c-0.6,0-1.2-0.5-1.2-1.2
			c0-0.6,0.5-1.2,1.2-1.2C87.1,23.1,87.6,23.7,87.6,24.3L87.6,24.3z M87.6,24.3"/>
		<path stroke="#20140F" stroke-width="0.25" stroke-miterlimit="10" d="M52.6,23.1c0,1.3-1,2.3-2.3,2.3c-1.3,0-2.3-1-2.3-2.3
			c0-1.3,1-2.3,2.3-2.3C51.5,20.8,52.6,21.9,52.6,23.1L52.6,23.1z M52.6,23.1"/>
	</g>
</g>
</svg>
