<?xml version="1.0" encoding="utf-8"?>
<!-- Generator: Adobe Illustrator 18.0.0, SVG Export Plug-In . SVG Version: 6.00 Build 0)  -->
<!DOCTYPE svg PUBLIC "-//W3C//DTD SVG 1.1//EN" "http://www.w3.org/Graphics/SVG/1.1/DTD/svg11.dtd">
<svg version="1.1" xmlns="http://www.w3.org/2000/svg" xmlns:xlink="http://www.w3.org/1999/xlink" x="0px" y="0px"
	 viewBox="0 0 110 110" enable-background="new 0 0 110 110" xml:space="preserve">
<g id="Capa_1">
	<circle fill="none" cx="55.1" cy="55" r="55"/>
</g>
<g id="iconos">
	<g>
		<path stroke="#20140F" stroke-width="0.25" stroke-miterlimit="10" d="M40.7,59.6c5.5,7.9,16.3,9.9,24.1,4.4
			c0.4-0.3,0.7-0.5,1.1-0.8c0,0,0.1-0.1,0.1-0.1c2-1.6,3.6-3.7,4.7-6c0,0,0-0.1,0.1-0.1c2.6-5.5,2-12-1.4-17c0,0-0.1-0.1-0.1-0.1
			C63.8,31.9,53,30,45.1,35.5C37.3,40.9,35.3,51.6,40.7,59.6C40.7,59.5,40.7,59.6,40.7,59.6L40.7,59.6z M48.7,63.2
			c-1.7-0.8-3.2-1.9-4.5-3.3l6.4-0.4L48.7,63.2z M47.6,49.7c0-4.1,3.3-7.4,7.4-7.4c4.1,0,7.4,3.3,7.4,7.4c0,4.1-3.3,7.4-7.4,7.4
			C50.9,57.2,47.6,53.8,47.6,49.7L47.6,49.7z M55.5,64.6c-0.2,0-0.3,0-0.5,0c-1.3,0-2.7-0.2-3.9-0.5l2.3-4.6
			c1.6,0.3,3.3,0.1,4.9-0.4L55.5,64.6z M58.5,64.2l2.9-5.7l2.2,3.4C62,63,60.3,63.8,58.5,64.2L58.5,64.2z M65.5,60.3L62.7,56
			c1.1-1.3,1.8-2.9,2.1-4.6l3.4,5.2C67.5,58,66.6,59.2,65.5,60.3L65.5,60.3z M69.9,49.7c0,1.4-0.2,2.8-0.6,4.1l-3.4-5.2l3.9-0.2
			C69.9,48.8,69.9,49.3,69.9,49.7L69.9,49.7z M67.7,41.9c0.8,1.3,1.4,2.6,1.8,4.1l-5.1,0.3c-0.6-1.5-1.5-2.9-2.8-4L67.7,41.9z
			 M61.3,36.2c1.7,0.8,3.3,1.9,4.5,3.3l-6.4,0.4L61.3,36.2z M54.7,34.8c0.1,0,0.2,0,0.3,0c1.3,0,2.7,0.2,3.9,0.5l-2.3,4.6
			c-1.6-0.3-3.2-0.1-4.7,0.3L54.7,34.8z M51.7,35.2l-2.9,5.7l-2.3-3.5C48.1,36.4,49.8,35.6,51.7,35.2L51.7,35.2z M44.6,39.1l2.8,4.3
			c-1.1,1.3-1.8,2.8-2.2,4.5l-3.4-5.1C42.6,41.3,43.5,40.1,44.6,39.1L44.6,39.1z M40.1,49.7c0-1.4,0.2-2.9,0.6-4.3l3.5,5.3L40.2,51
			C40.1,50.6,40.1,50.2,40.1,49.7L40.1,49.7z M45.7,53.2c0.6,1.6,1.5,2.9,2.8,4l-6.1,0.4c-0.8-1.3-1.4-2.6-1.8-4.1L45.7,53.2z
			 M45.7,53.2"/>
		<g>
			<path stroke="#20140F" stroke-width="0.25" stroke-miterlimit="10" d="M60,49.7c0-2.7-2.2-5-5-5c-2.7,0-5,2.2-5,5
				c0,2.7,2.2,5,5,5C57.7,54.7,60,52.5,60,49.7L60,49.7z M52.5,49.7c0-1.4,1.1-2.5,2.5-2.5c1.4,0,2.5,1.1,2.5,2.5
				c0,1.4-1.1,2.5-2.5,2.5C53.6,52.2,52.5,51.1,52.5,49.7L52.5,49.7z M52.5,49.7"/>
			<path stroke="#20140F" stroke-width="0.25" stroke-miterlimit="10" d="M22.7,78.3v5c0,4.8,3.9,8.7,8.7,8.7h47.2
				c4.8,0,8.7-3.9,8.7-8.7v-5c0-4.1-2.9-7.7-7-8.5c1.3-1.7,2.5-3.5,3.5-5.4c0,0,0,0,0,0c1.9-3.8,3.1-7.9,3.4-12.1c0,0,0,0,0,0v0
				c0-0.6,0.1-1.1,0.1-1.7c0.1-3.7-0.4-7.3-1.6-10.8l0,0c-1.3-4-3.4-7.8-6.2-11l0,0c-2.7-3.2-6.1-5.9-9.9-7.8l0,0
				c-3.7-1.9-7.8-3.1-12-3.4c-0.1,0-0.2,0-0.3,0c-0.5,0-1-0.1-1.5-0.1c-3.7-0.1-7.3,0.4-10.8,1.6h0l0,0c-8.1,2.7-14.9,8.4-18.8,16.1
				v0l0,0c-1.9,3.8-3.1,7.9-3.4,12.1v0c0,0,0,0,0,0c0,0.6-0.1,1.1-0.1,1.7c-0.1,3.7,0.4,7.3,1.6,10.8c1.2,3.6,3,7,5.4,10
				C25.6,70.6,22.7,74.1,22.7,78.3L22.7,78.3z M27.5,61.2l5.2,1.5c0.7,0.2,1.3-0.2,1.5-0.8c0.2-0.7-0.2-1.3-0.8-1.5l-6.9-2
				c-0.8-2.8-1.2-5.6-1.3-8.5l4.2,3.3c0.5,0.4,1.3,0.3,1.7-0.2c0.4-0.5,0.3-1.3-0.2-1.7l-5.6-4.5c0.3-2.9,1-5.7,2.1-8.4l2.6,4.7
				c0.3,0.6,1.1,0.8,1.7,0.5c0.6-0.3,0.8-1.1,0.5-1.7c0,0,0,0,0,0l-3.5-6.3c1.4-2.5,3.1-4.9,5.1-6.9l0.6,5.3
				c0.1,0.7,0.7,1.2,1.4,1.1c0.7-0.1,1.1-0.7,1.1-1.3l-0.8-7.1c2.2-1.8,4.7-3.3,7.4-4.4L42,27.4c-0.2,0.7,0.2,1.3,0.8,1.5
				c0.7,0.2,1.3-0.2,1.5-0.8l2-6.9c2.8-0.8,5.6-1.2,8.5-1.3l-3.3,4.2c-0.4,0.5-0.3,1.3,0.2,1.7s1.3,0.3,1.7-0.2l4.5-5.6
				c2.9,0.3,5.7,1,8.4,2.1l-4.7,2.6c-0.6,0.3-0.8,1.1-0.5,1.7c0.3,0.6,1.1,0.8,1.7,0.5c0,0,0,0,0,0l6.3-3.5c2.5,1.4,4.9,3.1,6.9,5.1
				l-5.3,0.6c-0.7,0.1-1.2,0.7-1.1,1.3c0.1,0.7,0.7,1.2,1.3,1.1c0,0,0,0,0.1,0l7.1-0.8c1.8,2.2,3.3,4.7,4.4,7.4l-5.2-1.5
				c-0.7-0.2-1.3,0.2-1.5,0.8c-0.2,0.7,0.2,1.3,0.8,1.5l6.9,2c0.8,2.8,1.2,5.6,1.3,8.5l-4.2-3.3c-0.5-0.4-1.3-0.3-1.7,0.2
				c-0.4,0.5-0.3,1.3,0.2,1.7l5.6,4.5c-0.3,2.9-1,5.7-2.1,8.4L80,56.3c-0.3-0.6-1.1-0.8-1.7-0.4c-0.6,0.3-0.8,1.1-0.5,1.6l3.5,6.3
				c-1.1,2.1-2.5,4-4.1,5.8H32.8c-0.1-0.1-0.3-0.3-0.4-0.5c0,0,0,0,0,0C30.3,66.7,28.7,64.1,27.5,61.2L27.5,61.2z M31.4,72.1h1.1
				L28,77.5c-0.4,0.5-0.4,1.3,0.2,1.7c0.5,0.4,1.3,0.4,1.7-0.2l5.8-7h7.9l-4.5,5.4c-0.4,0.5-0.4,1.3,0.2,1.7
				c0.5,0.4,1.3,0.4,1.7-0.2l5.8-7h6.7l-4.5,5.4c-0.4,0.5-0.4,1.3,0.2,1.7c0.5,0.4,1.3,0.4,1.7-0.2l5.8-7h6.7L59,77.5
				c-0.4,0.5-0.4,1.3,0.2,1.7c0.5,0.4,1.3,0.4,1.7-0.2l5.8-7h6.7l-4.5,5.4c-0.4,0.5-0.4,1.3,0.2,1.7c0.5,0.4,1.3,0.4,1.7-0.2l5.8-7
				h1.9c1.7,0,3.3,0.7,4.5,1.9l-2.9,3.5c-0.4,0.5-0.4,1.3,0.2,1.7c0.5,0.4,1.3,0.4,1.7-0.2h0l2.4-2.9c0.2,0.7,0.4,1.4,0.4,2.1v5
				c0,0.7-0.1,1.4-0.4,2.1L82,82.4c-0.4-0.5-1.2-0.6-1.7-0.2c-0.5,0.4-0.6,1.2-0.2,1.7l2.9,3.5c-1.2,1.2-2.8,1.9-4.5,1.9h-1.9
				l-5.8-7c-0.4-0.5-1.2-0.6-1.7-0.2c-0.5,0.4-0.6,1.2-0.2,1.7l4.5,5.4h-6.7l-5.8-7c-0.4-0.5-1.2-0.6-1.7-0.2
				c-0.5,0.4-0.6,1.2-0.2,1.7l4.5,5.4h-6.7l-5.8-7c-0.4-0.5-1.2-0.6-1.7-0.2c-0.5,0.4-0.6,1.2-0.2,1.7l4.5,5.4h-6.7l-5.8-7
				c-0.4-0.5-1.2-0.6-1.7-0.2c-0.5,0.4-0.6,1.2-0.2,1.7l4.5,5.4h-7.9l-5.8-7c-0.4-0.5-1.2-0.6-1.7-0.2c-0.5,0.4-0.6,1.2-0.2,1.7
				l4.5,5.4h-1.1c-3.4,0-6.2-2.8-6.2-6.2v-5C25.2,74.8,28,72.1,31.4,72.1L31.4,72.1z M31.4,72.1"/>
		</g>
	</g>
</g>
</svg>
